<?xml version="1.0" encoding="UTF-8"?>
<svg width="50px" height="50px" viewBox="0 0 50 50" version="1.1" xmlns="http://www.w3.org/2000/svg" xmlns:xlink="http://www.w3.org/1999/xlink">
    <!-- Generator: Sketch 48.2 (47327) - http://www.bohemiancoding.com/sketch -->
    <title>Artboard Copy 5</title>
    <desc>Created with Sketch.</desc>
    <defs>
        <circle id="path-1" cx="25" cy="25" r="25"></circle>
        <filter x="-14.0%" y="-10.0%" width="128.0%" height="128.0%" filterUnits="objectBoundingBox" id="filter-2">
            <feOffset dx="0" dy="2" in="SourceAlpha" result="shadowOffsetOuter1"></feOffset>
            <feGaussianBlur stdDeviation="2" in="shadowOffsetOuter1" result="shadowBlurOuter1"></feGaussianBlur>
            <feColorMatrix values="0 0 0 0 0   0 0 0 0 0   0 0 0 0 0  0 0 0 0.16 0" type="matrix" in="shadowBlurOuter1"></feColorMatrix>
        </filter>
        <path d="M7.35,22.5003906 C7.35,23.1878548 7.92375,23.7503255 8.625,23.7503255 L9.9,23.7503255 L9.9,28.1250977 C9.9,29.1625436 10.75425,30 11.8125,30 C12.87075,30 13.725,29.1625436 13.725,28.1250977 L13.725,23.7503255 L16.275,23.7503255 L16.275,28.1250977 C16.275,29.1625436 17.12925,30 18.1875,30 C19.24575,30 20.1,29.1625436 20.1,28.1250977 L20.1,23.7503255 L21.375,23.7503255 C22.07625,23.7503255 22.65,23.1878548 22.65,22.5003906 L22.65,10.0010416 L7.35,10.0010416 L7.35,22.5003906 Z M4.1625,10.0010416 C3.10425,10.0010416 2.25,10.838498 2.25,11.875944 L2.25,20.6254883 C2.25,21.6629342 3.10425,22.5003906 4.1625,22.5003906 C5.22075,22.5003906 6.075,21.6629342 6.075,20.6254883 L6.075,11.875944 C6.075,10.838498 5.22075,10.0010416 4.1625,10.0010416 Z M25.8375,10.0010416 C24.77925,10.0010416 23.925,10.838498 23.925,11.875944 L23.925,20.6254883 C23.925,21.6629342 24.77925,22.5003906 25.8375,22.5003906 C26.89575,22.5003906 27.75,21.6629342 27.75,20.6254883 L27.75,11.875944 C27.75,10.838498 26.89575,10.0010416 25.8375,10.0010416 Z M19.50075,2.7014218 L21.164625,1.07025676 C21.41325,0.826519452 21.41325,0.432789959 21.164625,0.189052654 C20.916,-0.0546846518 20.514375,-0.0546846518 20.26575,0.189052654 L18.37875,2.03270663 C17.35875,1.53898234 16.217625,1.25149732 15,1.25149732 C13.776,1.25149732 12.6285,1.53898234 11.602125,2.0389563 L9.70875,0.182802979 C9.460125,-0.0609343263 9.0585,-0.0609343263 8.809875,0.182802979 C8.56125,0.426540284 8.56125,0.820269778 8.809875,1.06400708 L10.480125,2.7014218 C8.58675,4.07010052 7.35,6.26998594 7.35,8.75110671 L22.65,8.75110671 C22.65,6.26373626 21.406875,4.06385084 19.50075,2.7014218 Z M12.45,6.25123691 L11.175,6.25123691 L11.175,5.00130202 L12.45,5.00130202 L12.45,6.25123691 Z M18.825,6.25123691 L17.55,6.25123691 L17.55,5.00130202 L18.825,5.00130202 L18.825,6.25123691 Z" id="path-3"></path>
    </defs>
    <g id="Page-2" stroke="none" stroke-width="1" fill="none" fill-rule="evenodd">
        <g id="Artboard-Copy-5">
            <g id="Oval-4">
                <use fill="black" fill-opacity="1" filter="url(#filter-2)" xlink:href="#path-1"></use>
                <use fill="#FFC107" fill-rule="evenodd" xlink:href="#path-1"></use>
            </g>
            <g id="01-icons/os/android" transform="translate(10.000000, 10.000000)">
                <mask id="mask-4" fill="white">
                    <use xlink:href="#path-3"></use>
                </mask>
                <use id="Fill-1" fill-opacity="0.87" fill="#212121" fill-rule="evenodd" xlink:href="#path-3"></use>
                <g id="00-color/neutral-color/white" mask="url(#mask-4)" fill="#FFFFFF" fill-rule="evenodd">
                    <rect id="Background" x="0" y="0" width="30" height="30"></rect>
                </g>
            </g>
        </g>
    </g>
</svg>