<?xml version="1.0" encoding="UTF-8"?>
<svg width="50px" height="50px" viewBox="0 0 50 50" version="1.1" xmlns="http://www.w3.org/2000/svg" xmlns:xlink="http://www.w3.org/1999/xlink">
    <!-- Generator: Sketch 48.2 (47327) - http://www.bohemiancoding.com/sketch -->
    <title>Artboard Copy</title>
    <desc>Created with Sketch.</desc>
    <defs>
        <circle id="path-1" cx="25" cy="25" r="25"></circle>
        <filter x="-14.0%" y="-10.0%" width="128.0%" height="128.0%" filterUnits="objectBoundingBox" id="filter-2">
            <feOffset dx="0" dy="2" in="SourceAlpha" result="shadowOffsetOuter1"></feOffset>
            <feGaussianBlur stdDeviation="2" in="shadowOffsetOuter1" result="shadowBlurOuter1"></feGaussianBlur>
            <feColorMatrix values="0 0 0 0 0   0 0 0 0 0   0 0 0 0 0  0 0 0 0.16 0" type="matrix" in="shadowBlurOuter1"></feColorMatrix>
        </filter>
        <path d="M25,22.3977273 C26.375,22.3977273 27.5,21.2471591 27.5,19.8409091 L27.5,7.05681818 C27.5,5.65056818 26.375,4.5 25,4.5 L5,4.5 C3.625,4.5 2.5,5.65056818 2.5,7.05681818 L2.5,19.8409091 C2.5,21.2471591 3.625,22.3977273 5,22.3977273 L0,22.3977273 L0,24.9545455 L30,24.9545455 L30,22.3977273 L25,22.3977273 Z M5,7.05681818 L25,7.05681818 L25,19.8409091 L5,19.8409091 L5,7.05681818 Z" id="path-3"></path>
    </defs>
    <g id="Page-2" stroke="none" stroke-width="1" fill="none" fill-rule="evenodd">
        <g id="Artboard-Copy">
            <g id="Oval-4">
                <use fill="black" fill-opacity="1" filter="url(#filter-2)" xlink:href="#path-1"></use>
                <use fill="#FFC107" fill-rule="evenodd" xlink:href="#path-1"></use>
            </g>
            <g id="01-icons/device/laptop" transform="translate(10.000000, 10.000000)">
                <mask id="mask-4" fill="white">
                    <use xlink:href="#path-3"></use>
                </mask>
                <use id="Page-1" fill-opacity="0.87" fill="#212121" fill-rule="evenodd" xlink:href="#path-3"></use>
                <g id="00-color/neutral-color/white" mask="url(#mask-4)" fill="#FFFFFF" fill-rule="evenodd">
                    <rect id="Background" x="0" y="0" width="30" height="30"></rect>
                </g>
            </g>
        </g>
    </g>
</svg>