<?xml version="1.0" encoding="UTF-8"?>
<svg width="718px" height="30px" viewBox="0 0 718 30" version="1.1" xmlns="http://www.w3.org/2000/svg" xmlns:xlink="http://www.w3.org/1999/xlink">
    <!-- Generator: Sketch 48.2 (47327) - http://www.bohemiancoding.com/sketch -->
    <title>logos</title>
    <desc>Created with Sketch.</desc>
    <defs>
        <polygon id="path-1" points="0.00161538247 30 167 30 167 0 0.00161538247 0 0.00161538247 30"></polygon>
        <polygon id="path-3" points="102.913355 30 0 30 0 15.0001274 0 0.000254716981 102.913355 0.000254716981 102.913355 30"></polygon>
        <path d="M76.2946108,14.4006223 C76.189674,14.6296279 75.9314048,14.7478427 75.6213775,14.8734304 C75.05012,15.0759494 75.1389823,15.2658228 74.529641,15.3924051 C73.5267794,15.556962 72.6889351,15.9113924 71.5971986,16.0759494 C71.0386357,16.1518987 70.5181693,16.1518987 70.1119418,16.1518987 C69.9468992,16.1518987 69.8199531,16.278481 69.7437981,16.5949367 C68.70284,20.8354278 67.331822,24.215162 64.843691,26.9366709 C63.8789133,27.9746405 62.6348414,29.3796999 60.9083744,29.3796999 C60.4640757,29.3796999 59.9816805,29.265777 59.5754529,29.0632453 C58.0901835,28.3417291 56.8715135,27.455657 56.4272022,26.5442684 C55.1069753,28.0885658 53.2027837,29.9872929 51.2097425,29.9872929 C50.9685322,29.9872929 50.7273473,29.9493179 50.4861497,29.911343 C49.0008802,29.5948885 47.8710726,28.9113475 47.1474798,28.151857 C46.8428091,27.8354025 46.6396953,27.5569203 46.48736,27.2531253 C45.2178989,28.6202089 43.5803068,29.9999499 41.879229,29.9999499 C41.6380314,29.9999499 41.3968465,29.961975 41.1556362,29.924 C39.6703794,29.6075456 38.5405717,28.9240046 37.8169789,28.1645139 C37.0806915,27.4050228 36.8902723,26.8354051 36.8521885,25.8227506 C35.6842843,26.8354051 34.0593868,27.9619823 31.4189205,29.4556477 C30.8603576,29.7721023 30.3398786,29.8986841 29.6543696,29.8986841 C28.4483816,29.8986841 27.1281547,29.3796999 25.2747416,28.4176772 C24.27188,27.8986911 23.5482872,26.7721139 23.1039758,25.4936367 C22.7866105,24.5695886 22.5834968,23.6075684 22.5834968,22.6835215 C22.5834968,22.126562 22.6596644,21.5949165 22.8246944,21.037957 C23.3197842,19.3291038 24.0687662,17.7341722 25.0081547,16.2151899 C24.6908022,16.1139241 24.3607423,16.0253165 24.1576285,16.0253165 C23.9545147,16.0253165 22.4311614,16.7848101 21.3013411,17.5063241 C17.9626711,19.6328987 14.9413665,22.8354165 13.9004211,27.5695772 C13.7353911,28.2910937 13.4180259,28.8100778 12.8086846,29.3290641 C12.5294031,29.5695686 12.1993432,29.6455185 11.9200618,29.6455185 C11.2726493,29.6455185 10.828338,29.35438 10.1047451,28.5569139 C9.66043377,28.0759025 9.3430685,27.4303367 9.3430685,26.9493253 C9.3430685,25.4303418 10.9552841,24.1898418 11.4376666,22.7847835 C12.3262893,20.2531468 13.1641337,17.7341684 13.8496426,15.164557 C14.0908402,14.2911392 14.2558702,13.3671013 14.2558702,13.1645696 C14.2558702,12.797481 13.8877265,12.6455823 13.8877265,12.240519 C13.8877265,11.6708987 14.8906007,11.1519114 15.9823246,11.1519114 C16.8582527,11.1519114 17.5818455,11.5949494 17.7087916,11.797481 C18.2292707,12.683557 18.3562168,13.4050633 18.3562168,13.9620253 C18.3562168,14.5949367 18.2800491,14.9620253 18.2800491,15 C18.2800491,15.0886076 18.3181329,15.1265823 18.3562168,15.1265823 C18.445079,15.1265823 18.5593305,15.0506329 18.7624443,14.8860759 C20.0445873,13.9240506 22.532731,12.2784937 23.8656525,12.2784937 C24.9954728,12.2784937 26.1887662,12.5822911 27.0392925,13.3164557 C27.8390529,12.3038101 28.7149811,11.3164684 29.6162984,10.354443 C30.5049085,9.43040506 32.0663456,8.46837975 34.1990275,8.46837975 C34.998788,8.46837975 36.0016623,8.63293671 36.890285,8.94939241 C38.1343442,9.39243038 38.5024879,10.5949494 38.5024879,11.6329241 C38.5024879,13.2405063 37.2965126,15.443038 36.369806,16.5696076 C33.881675,19.6075772 30.9873037,22.6581975 27.44552,24.7847722 C27.0392925,25.0252785 27.0012213,25.0632519 27.0012213,25.2657835 C27.0012213,25.5062886 27.3566704,26.2657785 27.7248014,26.4303354 C27.965999,26.5569177 28.2071966,26.6328671 28.4864781,26.6328671 C29.6924661,26.6328671 31.1777356,25.582238 31.6601181,25.3037582 C34.1482618,23.8607266 35.8747162,21.7341519 37.9312304,20.5316241 C37.9820089,20.5063063 38.0327873,20.4809911 38.0708711,20.4556747 C38.2232065,20.0885861 38.3628599,19.734157 38.5024879,19.3670709 C40.2670388,14.9240506 43.7199602,8.62027848 46.7412649,3.53168354 C47.1728817,2.81017722 47.5791092,0.0380253165 49.4705935,0.0380253165 C49.9910726,0.0380253165 50.3973001,5.06329117e-05 50.8416115,5.06329117e-05 C51.6413593,5.06329117e-05 52.3649521,0.316506329 52.529982,0.683594937 C52.7330958,1.12663291 52.8981257,1.48106329 52.8981257,1.92410127 C52.8981257,2.44308861 52.7330958,2.92408861 52.4538144,3.36712658 C48.835863,9.10129114 44.7736129,14.3544304 42.3997207,20.4936494 C41.7142117,22.2657949 40.914464,23.4683215 40.914464,25.9493266 C40.914464,26.6708418 41.1175777,26.8353987 41.2826077,26.8353987 C41.3587626,26.8353987 41.4730268,26.7847671 41.5999729,26.7088177 C43.6437926,25.3543899 44.9513375,22.8987038 46.7031811,22.3923772 C47.0205463,21.3670658 47.4394685,20.3670684 47.8330014,19.3670722 C49.5975523,14.9240506 53.0504738,8.62027848 56.0717784,3.53168354 C56.5033952,2.81017722 56.9096101,0.0380253165 58.8011071,0.0380253165 C59.3215861,0.0380253165 59.7278137,5.06329117e-05 60.172125,5.06329117e-05 C60.9718728,5.06329117e-05 61.6954656,0.316506329 61.847801,0.683594937 C62.0509147,1.12663291 62.2159447,1.48106329 62.2159447,1.92410127 C62.2159447,2.44308861 62.0509147,2.92408861 61.7716333,3.36712658 C58.1536819,9.10129114 54.0914192,14.3544304 51.7175396,20.4936494 C51.0320307,22.2657949 50.2322702,23.4683215 50.2322702,25.9493266 C50.2322702,26.6708418 50.435384,26.8353987 50.6004139,26.8353987 C50.6765816,26.8353987 50.7908331,26.7847671 50.9177792,26.7088177 C52.8727492,25.4176835 54.1421976,23.1392101 55.7671078,22.4809861 C55.9575269,19.468338 57.5443406,16.6708734 59.2199911,14.2025443 C59.4992726,13.7595063 59.9055001,13.4430506 60.1847816,13.0379873 C61.3907696,11.316481 63.1299186,9.2658481 65.1356544,9.2658481 C65.9734987,9.2658481 67.0144568,9.50635443 67.8649957,10.2278734 C68.2331267,10.5443291 68.3473782,10.7088861 68.4743243,11.0253418 C69.0836656,12.5949494 68.4743243,11.0253418 68.4743243,11.0253418 C69.070971,12.5949494 69.3121686,12.8734304 70.2388752,12.8734304 C70.8355219,12.8734304 71.7241447,12.7468481 73.2094014,12.7468481 C74.8790929,12.7468481 76.0442965,13.3090715 76.2946108,13.9111029 L76.2946108,14.4006223 L76.2946108,14.4006223 Z M4.35412455,8.82281013 C3.18622036,8.82281013 4.35412455,8.82281013 4.35412455,8.82281013 C3.18622036,8.82281013 2.01832886,8.65825316 1.44705868,7.94939241 C1.24394491,7.70888608 1.24394491,7.43040506 1.24394491,7.06331646 C1.24394491,6.34179747 1.35819641,5.54434177 1.56131018,5.34181013 C1.76442395,5.13927848 2.00562156,4.89877215 2.48801677,4.89877215 C3.32586108,4.89877215 3.21160958,5.17725316 5.21734539,5.17725316 C7.31195617,5.17725316 10.2063147,4.73421519 11.0060752,4.56965823 C12.8594757,4.20256962 14.8271277,3.92408861 16.9979061,3.92408861 C18.7624443,3.92408861 21.3013665,5.60763291 21.3013665,6.29117722 C21.3013665,7.01268354 21.0093904,7.45572152 20.4508275,7.86078481 C20.2096299,8.02534177 19.524121,8.30382278 19.1178934,8.30382278 C18.6354982,8.30382278 18.3562168,8.02534177 18.0769353,7.74686076 C17.9499892,7.62027848 17.1502414,7.34179747 16.9471277,7.34179747 C15.1825768,7.34179747 13.2530086,7.5823038 11.6407931,7.94939241 C11.7296553,8.06331646 11.7677392,8.18989873 11.7677392,8.2658481 C11.7677392,8.46837975 11.6027092,8.5823038 10.3586501,10.8734304 C7.74357293,15.6835443 6.0551897,20.2911177 4.92536934,26.1898304 C4.79842323,26.8353987 4.7603521,27.6834962 4.7603521,28.480962 C4.7603521,29.40501 4.31604072,29.9619692 3.42741796,29.9619692 C2.81807665,29.9619692 1.9421612,29.6834896 0.850424671,29.0379216 C0.291861796,28.7214671 0.126831856,28.1138734 0.126831856,27.5569152 C0.126831856,26.9493215 0.253777964,26.3543873 0.291861796,26.1898304 C1.78982587,20.2911203 3.47819641,14.9620253 5.92824359,9.70888608 C6.20752503,9.11394937 6.24560886,8.98736709 6.24560886,8.91141772 C6.24560886,8.78483544 6.1694412,8.74686076 6.04249509,8.74686076 C5.92824359,8.74686076 5.3569988,8.82281013 4.35412455,8.82281013 Z M34.1482618,12.075962 C34.1482618,11.8734304 34.1482618,12.075962 34.1482618,12.075962 C34.1482618,11.8734304 34.0720941,11.8354557 33.9324661,11.8354557 C33.7293523,11.8354557 33.1707895,12.1519114 32.2440829,13.075962 C30.5556996,14.7594937 29.0196644,16.4810127 27.7755926,19.0885949 C27.369365,19.9366924 27.3312812,20.0885899 27.3312812,20.2151722 C27.3312812,20.3037785 27.4201562,20.3417532 27.4582273,20.3417532 C27.534395,20.3417532 27.6232572,20.3417532 28.1437363,19.860743 C30.0352333,18.1392291 31.4824062,16.5822785 32.6503104,15.0126582 C33.2596517,14.2025316 33.056538,14.2025316 33.5389332,13.4430506 C34.0213157,12.683557 34.1482618,12.4430506 34.1482618,12.075962 Z M65.0722194,13.1139367 C64.9579679,13.1139367 65.0722194,13.1139367 65.0722194,13.1139367 C64.9579679,13.1139367 64.7167703,13.1519114 64.399405,13.6075949 C62.4190584,16.164557 59.4485322,20.8227633 59.4485322,23.9493329 C59.4485322,24.1518633 59.486616,24.6708494 59.6516333,25.1138861 C59.7785794,25.4429975 60.0959447,25.9619835 60.2990584,25.9619835 C60.540256,25.9619835 60.8195375,25.8354013 61.3019327,25.1138861 C63.4726984,21.8733911 65.6815607,18.6582139 65.6815607,14.7721519 C65.6815607,14.3291139 65.6815607,13.7721519 65.5165308,13.6455696 C65.3261116,13.4810127 65.2372493,13.3670886 65.1991655,13.240519 C65.1483871,13.1519114 65.1103032,13.1139367 65.0722194,13.1139367 Z" id="path-5"></path>
        <path d="M3.17364127,3.79746834e-05 L22.21548,3.79746834e-05 C23.9673363,3.79746834e-05 25.3891327,1.41775949 25.3891327,3.16458228 L25.3891327,22.1518557 C25.3891327,23.8986848 23.9673363,25.3164008 22.21548,25.3164008 L3.17364127,25.3164008 C1.42179133,25.3164008 0,23.8986848 0,22.1518557 L0,3.16458228 C0,1.41775949 1.42179133,3.79746834e-05 3.17364127,3.79746834e-05 Z" id="path-7"></path>
        <polygon id="path-9" points="0.000727189441 30 122.998278 30 122.998278 0 0.000727189441 0"></polygon>
    </defs>
    <g id="viewport/05-social" stroke="none" stroke-width="1" fill="none" fill-rule="evenodd" transform="translate(-354.000000, -625.000000)">
        <g id="confiance" transform="translate(0.000000, 548.000000)">
            <g id="logos" transform="translate(354.000000, 77.000000)">
                <g id="codepen-logo" transform="translate(274.000000, 0.000000)">
                    <mask id="mask-2" fill="white">
                        <use xlink:href="#path-1"></use>
                    </mask>
                    <g id="Clip-2"></g>
                    <path d="M10.5250145,7.37806622 C12.3940371,7.37806622 14.1411659,8.06722703 15.4413564,9.16177703 L17.2697463,7.01321757 C15.4413564,5.47274189 13.0847629,4.54035 10.5250145,4.54035 C4.71480007,4.58088649 0.00161538247,9.28339459 0.00161538247,15.0399081 C0.00161538247,20.8369622 4.71480007,25.5394662 10.5250145,25.5394662 C13.0847629,25.5394662 15.4413564,24.6070743 17.2697463,23.0665986 L15.4413564,20.9180392 C14.1005373,22.0531257 12.3940371,22.7017459 10.5250145,22.7017459 C6.25877399,22.7017459 2.84577792,19.2559459 2.84577792,15.0399081 C2.84577792,10.8238703 6.25877399,7.37806622 10.5250145,7.37806622 Z" id="Fill-1" fill="#FFFFFF" mask="url(#mask-2)"></path>
                    <path d="M68.6678401,5.18897027 L63.0201521,5.18897027 C62.2481326,5.18897027 61.5980516,5.83759054 61.5980516,6.60782838 L61.5980516,23.5125243 C61.5980516,24.2827622 62.2481326,24.9313824 63.0201521,24.9313824 L68.6678401,24.9313824 C74.1123652,24.9313824 78.5817484,20.51265 78.5817484,15.0399081 C78.5817484,9.6077027 74.1123652,5.18897027 68.6678401,5.18897027 Z M68.6678401,22.0936662 L64.4422119,22.0936662 L64.4422119,7.98615 L68.6678401,7.98615 C72.5684075,7.98615 75.7375881,11.1481784 75.7375881,15.0399081 C75.7375881,18.9316338 72.5684075,22.0936662 68.6678401,22.0936662 Z" id="Fill-3" fill="#FFFFFF" mask="url(#mask-2)"></path>
                    <path d="M86.2203528,6.56729189 L86.2203528,23.5125243 C86.2203528,24.2827622 86.8704745,24.9313824 87.6424533,24.9313824 L99.4254207,24.9313824 L99.4254207,22.0936662 L89.0645131,22.0936662 L89.0645131,16.4587662 L95.6467511,16.4587662 L95.6467511,13.6210459 L89.0645131,13.6210459 L89.0645131,7.98615 L99.4254207,7.98615 L99.4254207,5.14843378 L87.6424533,5.14843378 C86.8704745,5.18897027 86.2203528,5.79705405 86.2203528,6.56729189 Z" id="Fill-4" fill="#FFFFFF" mask="url(#mask-2)"></path>
                    <path d="M129.045329,6.56729189 L129.045329,23.5125243 C129.045329,24.2827622 129.69541,24.9313824 130.467429,24.9313824 L142.250356,24.9313824 L142.250356,22.0936662 L131.889489,22.0936662 L131.889489,16.4587662 L138.471687,16.4587662 L138.471687,13.6210459 L131.889489,13.6210459 L131.889489,7.98615 L142.250356,7.98615 L142.250356,5.14843378 L130.467429,5.14843378 C129.654777,5.18897027 129.045329,5.79705405 129.045329,6.56729189 Z" id="Fill-5" fill="#FFFFFF" mask="url(#mask-2)"></path>
                    <path d="M115.555873,5.18897027 L109.420594,5.18897027 C108.648615,5.18897027 107.998534,5.83759054 107.998534,6.60782838 L107.998534,24.9313824 L110.842695,24.9313824 L110.842695,16.4587662 L115.555873,16.4587662 C118.684462,16.4587662 121.203562,13.9453581 121.203562,10.8238662 C121.244194,7.70237838 118.684462,5.18897027 115.555873,5.18897027 Z M115.555873,13.6210459 L110.842695,13.6210459 L110.842695,7.98615 L115.555873,7.98615 C117.099831,7.98615 118.400034,9.24285405 118.400034,10.8238703 C118.400034,12.4048824 117.140464,13.6210459 115.555873,13.6210459 Z" id="Fill-6" fill="#FFFFFF" mask="url(#mask-2)"></path>
                    <path d="M164.353558,5.18897027 L164.353558,19.6207946 L152.692488,5.67543649 C152.326836,5.22951081 151.676714,5.0673527 151.107898,5.2700473 C150.539082,5.47274189 150.173389,5.99974865 150.173389,6.60782838 L150.173389,24.9313824 L153.017549,24.9313824 L153.017549,10.4995581 L164.678619,24.4449162 C164.963047,24.7692284 165.369373,24.971923 165.775658,24.971923 C165.938189,24.971923 166.100719,24.9313824 166.26325,24.8908459 C166.832065,24.6881514 167.197759,24.1611446 167.197759,23.5530649 L167.197759,5.18897027 L164.353558,5.18897027 Z" id="Fill-7" fill="#FFFFFF" mask="url(#mask-2)"></path>
                    <path d="M53.5531212,10.256323 C53.5531212,10.2157865 53.5531212,10.1752459 53.5124886,10.1347095 L53.5124886,10.0536324 C53.5124886,10.0130919 53.471856,9.97255135 53.471856,9.97255135 C53.471856,9.93201486 53.471856,9.93201486 53.4312234,9.89147432 C53.4312234,9.85093378 53.3905908,9.85093378 53.3905908,9.8103973 C53.3905908,9.76985676 53.3499582,9.76985676 53.3499582,9.76985676 C53.3499582,9.72932027 53.3093255,9.72932027 53.3093255,9.68877973 L53.2686929,9.64823919 C53.2686929,9.6077027 53.2280603,9.6077027 53.1874277,9.56716216 L53.1467951,9.52662162 C53.1061625,9.48608514 53.1061625,9.48608514 53.0655299,9.44554459 L53.0248973,9.40500811 C53.0248973,9.40500811 53.0248973,9.40500811 52.9842647,9.40500811 L39.2104257,0.202694595 C38.7634874,-0.081077027 38.1946553,-0.081077027 37.7883455,0.202694595 L23.9738414,9.40500811 C23.9738414,9.40500811 23.9738414,9.40500811 23.9332129,9.40500811 L23.8925803,9.44554865 C23.8519518,9.44554865 23.8519518,9.48608919 23.8113191,9.52662568 L23.7706906,9.56716622 C23.730058,9.6077027 23.730058,9.6077027 23.6894254,9.64824324 L23.6487969,9.68878378 C23.6487969,9.72932027 23.6081683,9.72932027 23.6081683,9.76986081 L23.5675357,9.81040135 C23.5675357,9.85093784 23.5269072,9.85093784 23.5269072,9.89147838 C23.5269072,9.93201486 23.5269072,9.93201486 23.4862746,9.97255541 C23.4862746,10.0130959 23.445646,10.0536324 23.445646,10.0536324 L23.445646,10.1347135 C23.445646,10.17525 23.445646,10.2157905 23.4050134,10.256327 L23.4050134,10.2968676 L23.4050134,10.4590216 L23.4050134,19.6207986 L23.4050134,19.7829568 L23.4050134,19.8234932 C23.4050134,19.8640297 23.4050134,19.9045703 23.445646,19.9451108 L23.445646,20.0261878 C23.445646,20.0667243 23.4862746,20.1072649 23.4862746,20.1072649 C23.4862746,20.1478054 23.4862746,20.1478054 23.5269072,20.1883419 C23.5269072,20.2288824 23.5675357,20.2288824 23.5675357,20.269423 L23.6081683,20.3099595 C23.6081683,20.3504959 23.6487969,20.3504959 23.6487969,20.3910365 L23.6894254,20.431577 C23.730058,20.4721135 23.730058,20.4721135 23.7706906,20.5126541 L23.8113191,20.5531905 C23.8519518,20.5937311 23.8519518,20.5937311 23.8925803,20.6342716 L23.9332129,20.6748081 L23.9738414,20.6748081 L37.7883455,29.8771192 C37.9915004,30.0392752 38.2759165,30.0798134 38.519704,30.0798134 C38.7634874,30.0798134 39.0072708,29.9987372 39.2510583,29.8771192 L53.024938,20.7153446 L53.0655706,20.7153446 L53.1062032,20.6748041 C53.1468358,20.6748041 53.1468358,20.6342676 53.1874684,20.593727 L53.228101,20.5531905 C53.2687336,20.51265 53.2687336,20.51265 53.3093662,20.4721095 L53.3499988,20.431573 C53.3499988,20.3910365 53.3906314,20.3910365 53.3906314,20.3504959 L53.431264,20.3099554 C53.431264,20.2694189 53.4718966,20.2694189 53.4718966,20.2288784 C53.4718966,20.1883419 53.4718966,20.1883419 53.5125292,20.1478014 C53.5125292,20.1072608 53.5531618,20.0667243 53.5531618,20.0667243 L53.5531618,19.9856432 C53.5531618,19.9451068 53.5531618,19.9045662 53.5937944,19.8640297 L53.5937944,19.8234892 L53.5937944,19.6613351 L53.5937944,10.4590176 L53.5937944,10.2968635 C53.5531212,10.2968635 53.5531212,10.256323 53.5531212,10.256323 Z M38.4790714,18.1208595 L33.8877782,15.0804446 L38.4790714,12.0400338 L43.0703564,15.0804446 L38.4790714,18.1208595 Z M37.2195135,9.72932027 L31.6124499,13.4994324 L27.0617893,10.4590176 L37.2195135,3.68903514 L37.2195135,9.72932027 Z M29.2558564,15.0399081 L26.0053863,17.1884635 L26.0053863,12.8913486 L29.2558564,15.0399081 Z M31.5718173,16.6209203 L37.1788809,20.3910324 L37.1788809,26.4313184 L27.0211607,19.6613311 L31.5718173,16.6209203 Z M39.7792618,20.3504959 L45.3863336,16.5803838 L49.936982,19.6207946 L39.7792618,26.3907831 L39.7792618,20.3504959 Z M47.7429027,15.0399081 L50.9933891,12.8913486 L50.9933891,17.2290041 L47.7429027,15.0399081 Z M45.4269662,13.4994324 L39.7792618,9.72932027 L39.7792618,3.72957162 L49.936982,10.4995581 L45.4269662,13.4994324 Z" id="Fill-8" fill="#FFFFFF" mask="url(#mask-2)"></path>
                </g>
                <g id="tedx-icon" transform="translate(139.000000, 0.000000)">
                    <mask id="mask-4" fill="white">
                        <use xlink:href="#path-3"></use>
                    </mask>
                    <g id="Clip-2"></g>
                    <polygon id="Fill-1" fill="#FFFFFF" mask="url(#mask-4)" points="8.40397657 7.72653962 0 7.72653962 0 0.0568584906 26.0042232 0.0568584906 26.0042232 7.72653962 17.6002467 7.72653962 17.6002467 29.9997419 8.40397657 29.9997419"></polygon>
                    <polygon id="Fill-3" fill="#FFFFFF" mask="url(#mask-4)" points="27.4190329 0.0568584906 52.6592593 0.0568584906 52.6592593 7.72653962 36.6436082 7.72653962 36.6436082 11.4623264 52.6592593 11.4623264 52.6592593 18.5942774 36.6436082 18.5942774 36.6436082 22.3300613 52.6592593 22.3300613 52.6592593 29.9997419 27.4190329 29.9997419"></polygon>
                    <path d="M54.2155497,0.0568584906 L69.3540313,0.0568584906 C79.3425978,0.0568584906 82.8513324,7.44352642 82.8513324,15 C82.8513324,24.1979547 77.9843843,30.0280429 67.5430706,30.0280429 L54.2155497,30.0280429 L54.2155497,0.0568584906 Z M63.4401052,22.3300642 L67.0620266,22.3300642 C72.8061725,22.3300642 73.6550453,17.6603321 73.6550453,14.8584934 C73.6550453,12.9622981 73.0608146,7.72653962 66.3829341,7.72653962 L63.4401052,7.72653962 L63.4401052,22.3300642 Z" id="Fill-4" fill="#FFFFFF" mask="url(#mask-4)"></path>
                    <polygon id="Fill-5" fill="#FFFFFF" mask="url(#mask-4)" points="96.1222599 18.4527708 93.3209146 13.7830387 90.5761909 18.4527708 83.813392 18.4527708 90.2366305 9.02840377 84.0397657 0.000254716981 90.8025646 0.000254716981 93.2926179 4.47187925 95.8958863 0.000254716981 102.658657 0.000254716981 96.4900887 9.02840377 102.913355 18.4527708"></polygon>
                </g>
                <g id="trello-icon">
                    <g id="Group-3" transform="translate(29.705389, 0.000000)">
                        <mask id="mask-6" fill="white">
                            <use xlink:href="#path-5"></use>
                        </mask>
                        <g id="Clip-2"></g>
                        <polygon id="Fill-1" fill="#FFFFFF" mask="url(#mask-6)" points="-29.7053892 30 76.2946108 30 76.2946108 0 -29.7053892 0"></polygon>
                    </g>
                    <g id="Group-6" transform="translate(0.000000, 4.430380)">
                        <mask id="mask-8" fill="white">
                            <use xlink:href="#path-7"></use>
                        </mask>
                        <g id="Clip-5"></g>
                        <polygon id="Fill-4" fill="#FFFFFF" mask="url(#mask-8)" points="0 25.5696203 106 25.5696203 106 -4.43037975 0 -4.43037975"></polygon>
                    </g>
                    <g id="Group-10" transform="translate(3.300599, 7.721519)" fill="#673AB7">
                        <path d="M12.5676012,2.53164558e-05 L17.2645945,2.53164558e-05 C18.1024388,2.53164558e-05 18.7879478,0.68356962 18.7879478,1.51901266 L18.7879478,9.55694937 C18.7879478,10.3923937 18.1024388,11.0759354 17.2645945,11.0759354 L12.5676012,11.0759354 C11.7297696,11.0759354 11.0442606,10.3923937 11.0442606,9.55694937 L11.0442606,1.51901266 C11.0442606,0.68356962 11.7297696,2.53164558e-05 12.5676012,2.53164558e-05 Z" id="Fill-7"></path>
                        <path d="M1.52333552,2.53164558e-05 L6.22032374,2.53164558e-05 C7.05816424,2.53164558e-05 7.74367195,0.68356962 7.74367195,1.51901266 L7.74367195,15.8860443 C7.74367195,16.7214848 7.05816424,17.4050253 6.22032374,17.4050253 L1.52333552,17.4050253 C0.685493749,17.4050253 -1.26946107e-05,16.7214848 -1.26946107e-05,15.8860443 L-1.26946107e-05,1.51901266 C-1.26946107e-05,0.68356962 0.685493749,2.53164558e-05 1.52333552,2.53164558e-05 Z" id="Fill-9"></path>
                    </g>
                </g>
                <g id="invision-logo" transform="translate(473.000000, 0.000000)">
                    <path d="M27.4225888,0 L2.72969543,0 C1.22208122,0 0,1.21590909 0,2.71590909 L0,27.2727273 C0,28.7840909 1.22208122,30 2.72969543,30 L27.4111675,30 C28.9187817,30 30.1408629,28.7840909 30.1408629,27.284092 L30.1408629,2.71590909 C30.1522843,1.21590909 28.930203,0 27.4225888,0 Z" id="Fill-1" fill="#FFFFFF"></path>
                    <path d="M42.3388325,23.2840898 L45.2284264,23.2840898 L45.2284264,10.7613636 L42.3388325,10.7613636 L42.3388325,23.2840898 Z M52.8807107,15.8863636 C51.4073604,15.4090909 50.036802,15.0340909 50.036802,14.125 L50.036802,14.0795455 C50.036802,13.3409091 50.6763959,12.8181818 51.8071066,12.8181818 C52.3553299,12.8181818 52.9606599,12.9431818 53.6002538,13.1590909 L53.6002538,13.1590909 C53.6002538,13.1590909 53.6116751,13.1590909 53.6230964,13.1704545 C53.680203,13.1931818 53.7373096,13.2159091 53.7829949,13.2272727 C54.2398477,13.375 55.4733503,13.5681818 56.5126904,11.9545455 C55.1649746,11.0909091 53.4517766,10.5454545 51.8756345,10.5454545 C49.3743655,10.5454545 47.3870558,11.9886364 47.3870558,14.3636364 L47.3870558,14.4090909 C47.3870558,16.8068182 49.465736,17.5681818 51.3274112,18.0909091 C52.8007614,18.5454545 54.1370558,18.8750011 54.1370558,19.8409102 L54.1370558,19.8863636 C54.1370558,20.7159091 53.4175127,21.2386352 52.1840102,21.2386352 C51.3616751,21.2386352 50.4593909,21.0227273 49.5571066,20.6022716 C49.2944162,20.4886352 47.9467005,20.0340898 46.8045685,21.6704523 C48.3692893,22.8863614 50.3451777,23.522725 52.1154822,23.522725 C54.7423858,23.522725 56.786802,22.2159068 56.786802,19.5795443 L56.786802,19.5454545 C56.786802,17.2840909 54.7195431,16.4545455 52.8807107,15.8863636 Z M34.4695431,19.9659091 L31.0774112,10.7613636 L27.9822335,10.7613636 L33.1560914,23.3863625 L35.7601523,23.3863625 L40.9111675,10.7613636 L37.8845178,10.7613636 L34.4695431,19.9659091 Z M70.1954315,10.5 C66.3350254,10.5 63.4682741,13.4659091 63.4682741,17.0681818 C63.4682741,20.6477273 66.30075,23.5681807 70.1497462,23.5681807 C74.0329949,23.5681807 76.8997348,20.6022716 76.8997348,17.0227273 C76.8997462,13.4204545 74.0558376,10.5 70.1954315,10.5 Z M70.1954315,21.0795455 C67.9568528,21.0795455 66.357868,19.2499989 66.357868,17.0227273 C66.357868,14.8181818 67.8312183,13.0113636 70.1497462,13.0113636 C72.4111675,13.0113636 74.0101523,14.8409091 74.0101523,17.0681818 C74.0101523,19.2840909 72.5253807,21.0795455 70.1954315,21.0795455 Z M85.4543147,10.5 C83.501269,10.5 82.3248731,11.5227273 81.5139594,12.7045455 L81.5139594,10.7613636 L78.6243655,10.7613636 L78.6243655,23.2954545 L81.5139594,23.2954545 L81.5139594,16.2272727 C81.5139594,14.2840909 82.678934,13.1136364 84.357868,13.1136364 C86.071066,13.1136364 87.0532995,14.2272727 87.0532995,16.1704545 L87.0532995,23.2840898 L89.9428934,23.2840898 L89.9428934,15.3068182 C89.9428934,12.3977273 88.2982234,10.5 85.4543147,10.5 Z M58.6941624,23.2840898 L61.5837563,23.2840898 L61.5837563,10.7613636 L58.6941624,10.7613636 L58.6941624,23.2840898 Z" id="Fill-3" fill="#FFFFFF"></path>
                    <path d="M10.0736041,9.44318182 C11.0786802,9.44318182 11.9124365,8.65909091 11.9124365,7.63636364 C11.9124365,6.61363636 11.0672577,5.82954545 10.0736041,5.82954545 C9.06852678,5.82954545 8.23477157,6.61363636 8.23477157,7.63636364 C8.23477157,8.65909091 9.07994924,9.44318182 10.0736041,9.44318182 Z" id="Fill-4" fill="#673AB7"></path>
                    <path d="M6.25888325,19.1136364 C6.15609137,19.5681818 6.09898477,20.0681807 6.09898477,20.465908 C6.09898477,22.056817 6.96700508,23.1136352 8.80583756,23.1136352 C10.3362944,23.1136352 11.569797,22.2159091 12.4606599,20.7499989 L11.9124365,22.9204545 L14.9505076,22.9204545 L16.6865482,16 C17.1205584,14.25 17.9543147,13.3409091 19.2335025,13.3409091 C20.2385787,13.3409091 20.8553299,13.9659091 20.8553299,14.9886364 C20.8553299,15.2840909 20.8324873,15.6136364 20.7182741,15.9545455 L19.8274112,19.1363625 C19.6903553,19.590908 19.6332487,20.0568182 19.6332487,20.4886352 C19.6332487,21.9999989 20.5241117,23.1022716 22.3972081,23.1022716 C23.9961929,23.1022716 25.2639594,22.0795443 25.9720812,19.6249977 L24.784264,19.1704523 C24.1903553,20.8181795 23.6763959,21.1136352 23.2652284,21.1136352 C22.8540609,21.1136352 22.6370558,20.840908 22.6370558,20.3068159 C22.6370558,20.0681795 22.6941624,19.7954523 22.7741117,19.465908 L23.642132,16.3636364 C23.8591371,15.6363636 23.9390863,14.9886364 23.9390863,14.3977273 C23.9390863,12.0795455 22.534264,10.875 20.821066,10.875 C19.2220812,10.875 17.6002538,12.3068182 16.7893401,13.8181818 L17.3832487,11.1136364 L12.7461929,11.1136364 L12.0951777,13.5 L14.2652284,13.5 L12.928934,18.818183 C11.8781726,21.1363636 9.95939086,21.1704545 9.71954429,21.1250011 C9.3197981,21.034092 9.06852906,20.8863636 9.06852906,20.375 C9.06852906,20.0795455 9.12563566,19.6590909 9.2626915,19.1363648 L11.2956864,11.1136364 L6.14467005,11.1136364 L5.49365482,13.5 L7.62944162,13.5 L6.25888325,19.1136364 Z" id="Fill-5" fill="#673AB7"></path>
                </g>
                <g id="mailchimp-logo" transform="translate(595.000000, 0.000000)">
                    <mask id="mask-10" fill="white">
                        <use xlink:href="#path-9"></use>
                    </mask>
                    <g id="Clip-2"></g>
                    <path d="M117.188363,22.0475711 L117.233684,22.0475711 C119.726224,22.0475711 121.475507,20.330756 121.493635,17.8639518 C121.502699,16.6441084 121.149199,15.5326898 120.496674,14.7285 C119.807801,13.8791295 118.847005,13.4182952 117.714082,13.409259 L117.686889,13.409259 C116.155055,13.409259 114.731989,14.5658584 113.34527,16.9513283 L113.236501,17.1410873 L113.163988,16.933256 C112.810488,15.9121988 112.502308,15.0628283 112.311962,14.5568223 C112.185064,14.2044217 112.121615,14.0417711 112.112551,13.9875542 C112.049102,13.7255151 111.8225,13.5719006 111.532448,13.5719006 C111.351166,13.5719006 111.16091,13.6351536 110.988692,13.7435873 C110.80741,13.8520211 110.716769,13.9965904 110.680512,14.1773133 L110.671448,14.2044217 C109.275575,18.5416446 108.124523,20.647003 107.154663,20.647003 C107.009637,20.647003 106.900868,20.6018313 106.819291,20.5114699 C106.565496,20.2313584 106.628945,19.5627018 106.710522,18.632006 C106.773971,17.9543133 106.846483,17.186259 106.819291,16.363997 C106.764906,14.791753 105.903816,13.8520211 104.517097,13.8429849 C102.75866,13.8429849 101.616672,15.7134127 101.090954,16.8248223 L100.936864,17.1591506 L100.900607,16.7886777 C100.77371,15.4061928 100.302376,13.7616596 98.8430538,13.7526235 C97.1300273,13.7526235 95.8338592,15.7495572 95.036308,17.4302259 L94.8187693,17.8820241 L94.8368976,17.3850542 C94.9275387,15.1441536 95.0091157,13.8249127 95.0634097,13.4544398 C95.1177944,13.0839669 95.0906927,12.84 94.9728592,12.6954217 C94.8550258,12.5598886 94.6465512,12.5147078 94.3293073,12.5327801 C93.7854606,12.5689247 93.5044731,12.903253 93.0784598,14.0146627 C92.3895873,15.8399096 90.6221671,20.0958163 89.217266,20.0958163 C88.9362875,20.0958163 88.7187579,19.9964187 88.5556039,19.8157048 C87.9664548,19.138012 88.2021126,17.3218012 88.5284116,14.8007892 L88.5556039,14.6110301 C88.7096938,13.4182952 88.4468346,13.1652922 87.7942366,13.0478223 C87.7217328,13.0387861 87.658284,13.02975 87.5948352,13.02975 C87.0781899,13.02975 86.8334679,13.5267199 86.344024,14.9001777 C85.4829606,17.3489096 84.368102,19.9331657 83.0719702,19.9331657 C83.0266497,19.9331657 82.9813382,19.9331657 82.9269535,19.9241295 C82.2380991,19.8066687 82.2562273,18.7946476 82.2743556,17.5025151 C82.2834197,16.80675 82.2924838,16.0115964 82.1927786,15.3067952 C82.0024413,14.0236988 81.241074,13.2285361 80.2168565,13.2195 C78.1684307,13.2195 76.7907219,15.8308735 76.1562522,17.3850452 L76.0112354,17.7374458 L75.9568508,17.3489096 C75.8752738,16.6712169 75.7574494,15.6049789 75.7121288,14.3399548 L75.7121288,14.3038102 L75.7393121,14.2767018 C79.5642676,9.47864458 81.2773304,6.00886446 81.3045228,3.04509036 C81.322651,1.14755422 80.4434593,0.00903614458 78.9569812,0 C77.869324,0 75.2951887,0.903587349 74.3978688,9.25275 C74.2347148,10.7978855 74.1440828,12.3882018 74.1259545,13.9694819 L74.1259545,13.9965904 L74.1078263,14.0236988 C72.358498,16.5447108 68.6241926,20.8909789 64.9623911,20.8909789 C61.663145,20.8909789 59.0255609,18.2253886 59.0255609,13.5267289 C59.0255609,7.21967169 63.5031144,3.35231928 66.8748643,3.35231928 L66.9020476,3.35231928 C67.6362225,3.36134639 68.2616282,3.56014157 68.7148247,3.9396506 C69.1861404,4.33722289 69.4308714,4.88841867 69.4308714,5.53900301 C69.4218073,6.40644578 69.1408289,6.85824398 68.8689055,7.29196084 C68.7964017,7.40039458 68.7238888,7.51786446 68.66044,7.6353253 C68.5969912,7.75279518 68.5335424,7.92447289 68.6241836,8.0690512 C68.7148247,8.22265663 68.9414184,8.31301807 69.2133327,8.31301807 C70.0200206,8.31301807 71.2255112,7.15642771 71.2436394,5.41249699 C71.2617676,3.58725 69.7118498,1.70778614 66.9654964,1.70778614 C62.8051868,1.70778614 57.1946646,6.27090361 57.1946646,13.6622711 C57.1946646,18.8940452 60.4848376,22.4993675 64.9351987,22.4993675 C68.0984832,22.4993675 71.2255203,20.2403946 73.9899929,16.4724307 L74.162211,16.2465361 L74.171266,16.5266476 C74.2256507,17.9091325 74.33442,18.9934428 74.4069239,19.7886054 C74.4522444,20.2946114 74.4885009,20.6650843 74.4885009,20.8729066 C74.4885009,21.3156669 74.5610138,21.6319229 74.7151037,21.8216765 C74.8691845,22.011431 75.1139155,22.1017898 75.485526,22.1017898 C76.1109407,22.1017898 76.2287651,21.6771036 76.4734961,20.6379759 L76.5459999,20.3397922 C76.8541707,19.0747681 77.9780934,14.9544036 79.682092,14.9544036 C79.9630704,14.9544036 80.171545,15.0357199 80.3256259,15.1983705 C80.6972454,15.5959518 80.6609889,16.4091777 80.6156684,17.3489096 C80.5884761,17.936241 80.5522196,18.5416446 80.6156684,19.1380211 C80.7788224,20.7373735 81.4676768,21.5234919 82.7366162,21.5325289 C84.032748,21.5325289 85.3923195,20.141006 86.1083662,18.8398373 L86.2443279,18.5958614 L86.2987125,18.8669367 C86.4346651,19.5627018 87.0238143,21.8397497 88.8728478,21.8397497 C90.5496632,21.8397497 91.9817929,20.077753 93.5588578,16.4633946 L93.7673324,15.9935331 L93.7582682,16.5085753 C93.7220118,17.8820331 93.6494989,19.5536657 93.6494989,20.8548343 C93.6494989,21.8578229 93.7492041,22.2373301 94.2114738,22.2373301 C94.2477303,22.2373301 94.2839867,22.2463663 94.3202432,22.2463663 C94.7643847,22.2463663 95.0725645,21.9843262 95.2175903,21.4602443 C96.4048983,17.3398735 97.429143,15.4242651 98.4442329,15.4242651 C99.4412852,15.4333012 99.5319263,17.2404849 99.6135033,20.4482259 L99.6225674,20.6741205 C99.6497598,21.7945699 99.6860162,22.2915443 100.383953,22.2915443 C100.909671,22.2915443 101.045633,21.8758925 101.317556,20.8548343 C101.371941,20.6560482 101.426326,20.4482259 101.489775,20.2132861 C102.45048,16.9061566 103.239057,15.5507711 104.227046,15.5507711 C105.070008,15.5598072 105.115329,16.42725 105.133366,16.7163976 C105.169623,17.3308373 105.106174,17.9723855 105.042725,18.5868253 C104.988431,19.1651205 104.924892,19.7524608 104.952175,20.3126837 C105.006469,21.6048163 105.713469,22.327687 106.955253,22.3367223 C108.568574,22.3367223 110.018832,20.457253 111.287808,16.7615783 L111.378449,16.4995392 L111.478063,16.7525422 C111.704666,17.3308373 112.012846,18.1169639 112.284769,19.0566958 L112.293833,19.0928404 L112.275705,19.1289849 C111.043077,21.8578202 110.172922,24.8938798 110.163858,26.5113027 C110.14573,28.6528102 111.11559,30.0353002 112.63827,30.0533731 L112.665462,30.0533731 C113.490296,30.0533731 115.411797,29.719044 115.457118,26.6649145 C115.475246,25.4089265 115.176221,23.637891 114.57799,21.3969904 L114.505477,21.1439855 L114.723015,21.2885602 C115.457118,21.7674578 116.327273,22.0385349 117.188363,22.0475711 Z M75.7121288,11.6743735 C75.7483853,10.9063193 75.811825,10.1653735 75.9024661,9.46057229 C76.5006794,4.91552711 77.7424265,1.73489458 78.9297979,1.73489458 L78.938853,1.73489458 C79.5008189,1.73489458 79.7908614,2.16861145 79.7817973,2.99991867 C79.763669,5.05106024 78.4584732,7.99676205 75.9024661,11.7376175 L75.7030556,12.0267651 L75.7121288,11.6743735 Z M113.508424,28.0293316 C113.318078,28.2823355 113.055219,28.4088398 112.728911,28.4088398 C112.348218,28.4088398 112.067231,28.2733021 111.876884,28.0202982 C111.333128,27.2974265 111.487127,25.6077145 112.37541,22.535513 C112.48418,22.165041 112.592949,21.8036051 112.719847,21.4421702 L112.819552,21.1349503 L112.910193,21.4421702 C113.934438,24.9751988 114.133848,27.1980289 113.508424,28.0293316 Z M113.834732,18.9301898 L113.816604,18.8940452 L113.780348,18.7765753 L113.798476,18.7404398 C114.967656,16.3368886 116.318209,14.9543946 117.487479,14.9543946 L117.496543,14.9543946 C118.819813,14.9634307 119.726224,16.1471386 119.71716,17.8368434 C119.708096,18.9572982 119.20957,19.6078825 118.79262,19.951247 C118.321287,20.3488193 117.686889,20.5747229 117.061466,20.5747229 C115.511503,20.5566506 114.451001,19.6711355 113.834732,18.9301898 Z" id="Fill-1" fill="#FFFFFF" mask="url(#mask-10)"></path>
                    <path d="M39.048829,21.6499925 C40.8615971,21.5054178 42.2936814,19.0476596 42.828455,17.999494 L42.9644167,17.7284187 L43.0188013,18.0266024 C43.2725874,19.4994488 44.0792662,21.9752855 46.5990168,22.0023931 L46.617145,22.0023931 C47.7048113,22.0023931 48.9374943,21.3427726 50.1883055,20.0867892 L50.2789466,19.9964277 L50.3423954,20.1048524 C51.1853306,21.5054196 52.3092533,22.2463617 53.5056798,22.1921476 C55.2731363,22.1017889 56.3426653,20.8548343 56.4423705,19.9873916 C56.4695629,19.7705331 56.4061141,19.5627018 56.2792256,19.4181325 C56.1160806,19.2374096 55.8894778,19.2193373 55.7172688,19.381988 L55.6356917,19.4542771 C55.2278158,19.8518494 54.4573844,20.583759 53.6235133,20.6289398 C52.5992958,20.6831566 51.8470017,20.0687169 51.3575487,18.8127289 L51.3394205,18.758512 L51.3756769,18.7133313 C54.1854701,15.044756 56.1613921,9.45154518 55.9619817,5.70164458 C55.8713496,3.96675904 55.3637775,1.89753614 53.4603592,1.89753614 L53.3153425,1.89753614 C52.5902317,1.93368072 51.9195055,2.27704518 51.3484846,2.92762952 C49.5810371,4.89745482 48.6565158,9.74069277 48.991888,15.2706596 C49.0643918,16.4182139 49.2638023,17.493488 49.5900922,18.4603283 L49.6082204,18.5145452 L49.571964,18.5597259 C48.5296273,19.7795693 47.4963458,20.4482259 46.6715297,20.4482259 C44.6865526,20.4482259 44.7499923,17.1230151 44.9040822,14.3670633 C44.9403387,13.7706958 44.9856592,13.3911958 44.8134411,13.1833645 C44.6865526,13.029759 44.478078,12.9574699 44.1699073,12.9484337 L44.1336508,12.9484337 C43.4266773,12.9484337 43.2816515,13.093003 42.9190961,14.1411687 C42.166802,16.3188163 40.6803239,19.9602831 39.1847907,19.9602831 C38.7678506,19.9602831 38.4506158,19.8157048 38.2421503,19.5446295 C37.5170394,18.6229699 38.0699321,16.3188163 38.5140646,14.475497 C38.5956325,14.1411687 38.6681454,13.8249127 38.7315942,13.5267289 C38.8312994,13.0839669 38.795043,12.7677108 38.6409531,12.5779608 C38.4868722,12.3882018 38.1696374,12.3068855 37.7617614,12.3430301 C37.1182276,12.397238 36.7103516,12.6592861 36.5109502,13.8791295 L36.4746937,14.1321325 L36.3296679,13.9514187 C36.0486895,13.5357651 35.5048609,13.0478223 34.4897076,13.0478223 C34.3990755,13.0478223 34.3084344,13.0478223 34.2177933,13.0568584 C33.1392002,13.1472199 31.9065082,13.8972018 31.0091883,15.0176476 C29.9577785,16.3278524 29.4592704,17.9814217 29.5952321,19.6711355 C29.6042962,19.761488 29.6133604,19.8428133 29.6314795,19.9331747 L29.6405436,19.9783554 L29.6042962,20.0145 C28.9788906,20.7012199 28.3353478,21.0445843 27.700878,21.0445843 C26.7219902,21.0355482 26.1600243,20.3126837 26.1600243,19.1018675 C26.1600243,17.0687982 27.5467972,10.9334277 27.5467972,8.7105994 C27.5467972,6.35222892 26.4863233,5.06009639 24.655427,5.05106024 L24.6282347,5.05106024 C21.9543942,5.05106024 19.8606478,8.07808735 17.8665975,14.3128464 C17.6853243,14.8821145 17.4859139,15.5417349 17.3137048,16.110994 L17.0327264,17.0507259 L17.1142943,16.0748494 C17.2955766,13.9062289 17.4315292,11.7918343 17.494978,9.7949006 C17.5946832,6.78595482 17.1868072,4.84323795 16.2441668,3.86736145 C15.7365856,3.3432741 15.0658685,3.08123494 14.1957318,3.0721988 L14.1685395,3.0721988 C10.8874216,3.0721988 9.31937553,8.58409337 8.17733277,12.4695271 C7.83290558,13.6441898 7.15311621,16.2917078 6.69992421,18.0988825 L6.97184032,17.6651657 C7.17124444,15.3881205 7.7603954,9.67743976 7.71507575,6.57812349 C7.68788432,3.25292169 6.58209347,1.76200301 4.13485211,1.74393072 L4.10766069,1.74393072 C2.80246481,1.74393072 1.89607899,2.39451506 1.36131179,2.93666566 C0.500245532,3.80410843 -0.0254581539,5.07816867 0.00173341534,6.1805512 C0.0198611282,6.84920783 0.42773463,7.4455753 0.744969668,7.4455753 C0.944374422,7.4455753 1.06220425,7.1745 1.10752391,7.0118494 C1.86888756,4.51794578 2.84778447,3.30713855 4.09859657,3.30713855 C4.62430057,3.30713855 5.00498239,3.46074398 5.29502582,3.777 C6.27392273,4.82516566 6.10170913,7.66243373 5.77541016,12.8128916 C5.66664354,14.475497 5.54881371,16.3549608 5.44911119,18.4964639 C5.43098388,18.8669367 5.41285565,19.2193373 5.38566422,19.5536657 C5.28596171,21.0355482 5.21345063,22.2102181 5.77541016,22.3005768 C6.50958239,22.4180431 6.98996673,22.1198584 7.23469141,21.3879515 C7.59724592,20.3126837 8.41299243,17.3669819 9.99010169,11.9906295 C11.5037721,6.83113554 12.645814,4.95167169 14.1050907,4.95167169 C15.7909702,4.95167169 15.9178678,7.84314759 15.6096971,13.9423735 C15.5462483,15.234506 15.4556071,16.6983253 15.3921674,18.2976777 C15.3831033,18.5235723 15.3740392,18.7404307 15.3649751,18.948262 C15.3015263,20.267503 15.2471416,21.3066271 15.6278253,21.7132419 C15.7456497,21.8397443 15.9088037,21.9029964 16.1172692,21.9029964 C16.8514441,21.9029964 17.0689738,21.2614482 17.4315292,20.20425 C17.494978,20.014491 17.5674909,19.8157048 17.6399947,19.6078825 C20.1506903,12.7044578 22.0087789,6.72270181 24.492273,6.72270181 C25.2355121,6.72270181 25.8246612,7.32810542 25.8246612,8.51180422 C25.8246612,11.2316114 24.492273,16.4995301 24.492273,19.1651205 C24.492273,20.1229247 24.7641873,20.9813313 25.2898968,21.5777024 C25.8246612,22.1921431 26.5769644,22.5264714 27.4561561,22.5355075 L27.4742843,22.5355075 C28.3081554,22.5355075 29.178283,22.1288928 30.0574837,21.3337337 L30.1390607,21.2614464 L30.2025004,21.3518051 C30.7825945,22.1288928 31.7161709,22.5445428 32.7222511,22.4632202 C34.272178,22.345753 35.5683097,20.9722952 36.0486895,19.6711265 L36.1393307,19.4181235 L36.2299718,19.6711265 C36.6197105,20.6289398 37.3901419,21.785531 39.048829,21.6499925 Z M53.3153425,3.62339458 L53.3425258,3.62339458 C53.5147439,3.62339458 53.6778889,3.71374699 53.8047864,3.88543373 C54.4211279,4.71673193 54.430192,7.73472289 53.3697181,11.1773946 C52.7624408,13.1472199 51.955762,14.9995753 51.0221766,16.5447108 L50.8771598,16.7886867 L50.8409034,16.4995392 C50.732134,15.6682319 50.6777494,14.8007892 50.6414929,14.0598434 C50.3605145,8.87324096 51.9376338,3.68663855 53.3153425,3.62339458 Z M36.1393307,15.7676295 C35.5955021,17.9452771 34.5622205,20.5656867 32.6860037,20.710256 C32.631619,20.710256 32.5862985,20.7192922 32.5319138,20.7192922 C31.7524183,20.7192922 31.317359,20.2132861 31.235782,19.2103012 C31.1360768,17.9543133 31.6708503,16.490503 32.6134908,15.4784819 C33.2117041,14.8278976 33.8914943,14.475497 34.5168999,14.475497 L34.525964,14.475497 C35.3145237,14.4845331 35.8764805,15.1170452 36.1302665,15.7043765 L36.1393307,15.7314849 L36.1393307,15.7676295 Z" id="Fill-3" fill="#FFFFFF" mask="url(#mask-10)"></path>
                    <path d="M44.8315693,7.80701205 C44.142715,7.80701205 43.5807581,8.34916265 43.5807581,9.01781928 C43.571694,9.6864759 44.1336508,10.2376627 44.8134411,10.2466988 L44.8225052,10.3460964 L44.8225052,10.3460964 L44.8225052,10.2466988 C45.5022955,10.2466988 46.0642523,9.70454819 46.0642523,9.03589157 C46.0733164,8.3581988 45.5113596,7.80701205 44.8315693,7.80701205 Z" id="Fill-4" fill="#FFFFFF" mask="url(#mask-10)"></path>
                    <path d="M88.2927537,7.80701205 C87.6039084,7.80701205 87.0419425,8.34916265 87.0419425,9.01781928 C87.0328875,9.6864759 87.5948352,10.2376627 88.2746255,10.2466988 L88.2836896,10.3460964 L88.2836896,10.3460964 L88.2836896,10.2466988 C88.9634799,10.2466988 89.5254367,9.70454819 89.5254367,9.03589157 C89.5345099,8.3581988 88.9816172,7.80701205 88.2927537,7.80701205 Z" id="Fill-5" fill="#FFFFFF" mask="url(#mask-10)"></path>
                    <path d="M122.146251,20.6741205 C121.674917,20.6741205 121.294225,21.0536205 121.294225,21.5234892 C121.294225,21.9933551 121.674917,22.3728623 122.146251,22.3728623 C122.617585,22.3728623 122.998278,21.9933551 122.998278,21.5234892 C122.998278,21.0536205 122.617585,20.6741205 122.146251,20.6741205 Z M122.146251,22.2463608 C121.74743,22.2463608 121.421122,21.9210678 121.421122,21.5234892 C121.421122,21.1259105 121.74743,20.8006175 122.146251,20.8006175 C122.545072,20.8006175 122.87138,21.1259105 122.87138,21.5234892 C122.87138,21.9210696 122.545072,22.2463608 122.146251,22.2463608 Z" id="Fill-6" fill="#FFFFFF" mask="url(#mask-10)"></path>
                    <path d="M122.51788,21.2975919 C122.51788,21.1259105 122.427239,21.026512 122.2097,21.026512 L121.829007,21.026512 L121.829007,22.0023922 L121.955905,22.0023922 L121.955905,21.5777051 L122.128123,21.5777051 L122.418175,22.0023922 L122.554136,22.0023922 L122.264085,21.5777051 C122.409111,21.5505976 122.51788,21.4783102 122.51788,21.2975919 Z M122.119059,21.469275 L121.964969,21.469275 L121.964969,21.1349476 L122.182508,21.1349476 C122.291277,21.1349476 122.400046,21.1710904 122.400046,21.2975937 C122.400046,21.4602389 122.255021,21.469275 122.119059,21.469275 Z" id="Fill-7" fill="#FFFFFF" mask="url(#mask-10)"></path>
                </g>
            </g>
        </g>
    </g>
</svg>