<?xml version="1.0" encoding="UTF-8"?>
<svg width="50px" height="50px" viewBox="0 0 50 50" version="1.1" xmlns="http://www.w3.org/2000/svg" xmlns:xlink="http://www.w3.org/1999/xlink">
    <!-- Generator: Sketch 48.2 (47327) - http://www.bohemiancoding.com/sketch -->
    <title>Artboard Copy 3</title>
    <desc>Created with Sketch.</desc>
    <defs>
        <circle id="path-1" cx="25" cy="25" r="25"></circle>
        <filter x="-14.0%" y="-10.0%" width="128.0%" height="128.0%" filterUnits="objectBoundingBox" id="filter-2">
            <feOffset dx="0" dy="2" in="SourceAlpha" result="shadowOffsetOuter1"></feOffset>
            <feGaussianBlur stdDeviation="2" in="shadowOffsetOuter1" result="shadowBlurOuter1"></feGaussianBlur>
            <feColorMatrix values="0 0 0 0 0   0 0 0 0 0   0 0 0 0 0  0 0 0 0.16 0" type="matrix" in="shadowBlurOuter1"></feColorMatrix>
        </filter>
        <path d="M20.5384615,0 L9.46153846,0 C7.55076923,0 6,1.52727273 6,3.40909091 L6,26.5909091 C6,28.4727259 7.55076923,30 9.46153846,30 L20.5384615,30 C22.4492308,30 24,28.4727259 24,26.5909091 L24,3.40909091 C24,1.52727273 22.4492308,0 20.5384615,0 Z M15,28.6363636 C13.8507692,28.6363636 12.9230769,27.7227273 12.9230769,26.5909091 C12.9230769,25.4590909 13.8507692,24.5454545 15,24.5454545 C16.1492308,24.5454545 17.0769231,25.4590909 17.0769231,26.5909091 C17.0769231,27.7227273 16.1492308,28.6363636 15,28.6363636 Z M21.2307692,23.1818182 L8.76923077,23.1818182 L8.76923077,4.09090909 L21.2307692,4.09090909 L21.2307692,23.1818182 Z" id="path-3"></path>
    </defs>
    <g id="Page-2" stroke="none" stroke-width="1" fill="none" fill-rule="evenodd">
        <g id="Artboard-Copy-3">
            <g id="Oval-4">
                <use fill="black" fill-opacity="1" filter="url(#filter-2)" xlink:href="#path-1"></use>
                <use fill="#FFC107" fill-rule="evenodd" xlink:href="#path-1"></use>
            </g>
            <g id="01-icons/device/phone" transform="translate(10.000000, 10.000000)">
                <mask id="mask-4" fill="white">
                    <use xlink:href="#path-3"></use>
                </mask>
                <use id="Page-1" fill-opacity="0.87" fill="#212121" fill-rule="evenodd" xlink:href="#path-3"></use>
                <g id="00-color/neutral-color/white" mask="url(#mask-4)" fill="#FFFFFF" fill-rule="evenodd">
                    <rect id="Background" x="0" y="0" width="30" height="30"></rect>
                </g>
            </g>
        </g>
    </g>
</svg>