<?xml version="1.0" encoding="UTF-8"?>
<svg width="16px" height="16px" viewBox="0 0 16 16" version="1.1" xmlns="http://www.w3.org/2000/svg" xmlns:xlink="http://www.w3.org/1999/xlink">
    <!-- Generator: Sketch 48.2 (47327) - http://www.bohemiancoding.com/sketch -->
    <title>Page 1</title>
    <desc>Created with Sketch.</desc>
    <defs></defs>
    <g id="modal/calendar/maps" stroke="none" stroke-width="1" fill="none" fill-rule="evenodd" transform="translate(-48.000000, -73.000000)">
        <g fill="#4A4A4A" id="menu-bar">
            <g transform="translate(32.000000, 60.000000)">
                <g id="Group-9" transform="translate(16.000000, 10.000000)">
                    <path d="M11.4351058,13.0628931 L10.707833,13.0628931 L10.4562607,12.8113208 C11.352773,11.7730132 11.89251,10.4236707 11.89251,8.946255 C11.89251,5.66209262 9.23041738,3 5.946255,3 C2.66209262,3 0,5.66209262 0,8.946255 C0,12.2304174 2.66209262,14.89251 5.946255,14.89251 C7.42367067,14.89251 8.77301315,14.352773 9.81132075,13.4608348 L10.0628931,13.7124071 L10.0628931,14.4351058 L14.6369354,19 L16,17.6369354 L11.4351058,13.0628931 Z M5.946255,13.0628931 C3.67295597,13.0628931 1.82961692,11.219554 1.82961692,8.946255 C1.82961692,6.67295597 3.67295597,4.82961692 5.946255,4.82961692 C8.21955403,4.82961692 10.0628931,6.67295597 10.0628931,8.946255 C10.0628931,11.219554 8.21955403,13.0628931 5.946255,13.0628931 Z" id="Page-1"></path>
                </g>
            </g>
        </g>
    </g>
</svg>