<?xml version="1.0" encoding="UTF-8"?>
<svg width="50px" height="50px" viewBox="0 0 50 50" version="1.1" xmlns="http://www.w3.org/2000/svg" xmlns:xlink="http://www.w3.org/1999/xlink">
    <!-- Generator: Sketch 48.2 (47327) - http://www.bohemiancoding.com/sketch -->
    <title>Artboard Copy 2</title>
    <desc>Created with Sketch.</desc>
    <defs>
        <circle id="path-1" cx="25" cy="25" r="25"></circle>
        <filter x="-14.0%" y="-10.0%" width="128.0%" height="128.0%" filterUnits="objectBoundingBox" id="filter-2">
            <feOffset dx="0" dy="2" in="SourceAlpha" result="shadowOffsetOuter1"></feOffset>
            <feGaussianBlur stdDeviation="2" in="shadowOffsetOuter1" result="shadowBlurOuter1"></feGaussianBlur>
            <feColorMatrix values="0 0 0 0 0   0 0 0 0 0   0 0 0 0 0  0 0 0 0.16 0" type="matrix" in="shadowBlurOuter1"></feColorMatrix>
        </filter>
        <path d="M23.8421053,0 L6.15789474,0 C4.41473684,0 3,1.4 3,3.125 L3,26.875 C3,28.5999988 4.41473684,30 6.15789474,30 L23.8421053,30 C25.5852632,30 27,28.5999988 27,26.875 L27,3.125 C27,1.4 25.5852632,0 23.8421053,0 Z M15,28.75 C13.9515789,28.75 13.1052632,27.9125 13.1052632,26.875 C13.1052632,25.8375 13.9515789,25 15,25 C16.0484211,25 16.8947368,25.8375 16.8947368,26.875 C16.8947368,27.9125 16.0484211,28.75 15,28.75 Z M24.4736842,23.75 L5.52631579,23.75 L5.52631579,3.75 L24.4736842,3.75 L24.4736842,23.75 Z" id="path-3"></path>
    </defs>
    <g id="Page-2" stroke="none" stroke-width="1" fill="none" fill-rule="evenodd">
        <g id="Artboard-Copy-2">
            <g id="Oval-4">
                <use fill="black" fill-opacity="1" filter="url(#filter-2)" xlink:href="#path-1"></use>
                <use fill="#FFC107" fill-rule="evenodd" xlink:href="#path-1"></use>
            </g>
            <g id="01-icons/device/tablet" transform="translate(10.000000, 10.000000)">
                <mask id="mask-4" fill="white">
                    <use xlink:href="#path-3"></use>
                </mask>
                <use id="Page-1" fill-opacity="0.87" fill="#212121" fill-rule="evenodd" xlink:href="#path-3"></use>
                <g id="00-color/neutral-color/white" mask="url(#mask-4)" fill="#FFFFFF" fill-rule="evenodd">
                    <rect id="Background" x="0" y="0" width="30" height="30"></rect>
                </g>
            </g>
        </g>
    </g>
</svg>